# xmcd CD database file
#
# Track frame offsets:
#	150
#	20354
#	43514
#	66758
#	86438
#	116330
#	138320
#	159932
#	185723
#	203321
#	221172
#	241301
#	260931
#
# Disc length: 3777 seconds
#
# Revision: 5
# Processed by: cddbd v1.5.1PL2 Copyright (c) Steve Scherf et al.
# Submitted via: CDex 1.51
#
DISCID=b00ebf0d
DTITLE=Crystal Kay - CK5
DYEAR=2004
DGENRE=JPop
TTITLE0=Motherland
TTITLE1=Eternal Memories
TTITLE2=Ex-Boyfriend
TTITLE3=月のない夜　道のない場所
TTITLE4=LOST CHILD
TTITLE5=think of U
TTITLE6=hard to say
TTITLE7=I LIKE IT
TTITLE8=OVER THE RAINBOW
TTITLE9=lead me to the end
TTITLE10=Can't be Stopped
TTITLE11=片想い
TTITLE12=Boyfriend -part2-
EXTD=YEAR: 2004
EXTT0=
EXTT1=
EXTT2=
EXTT3=
EXTT4=
EXTT5=
EXTT6=
EXTT7=
EXTT8=
EXTT9=
EXTT10=
EXTT11=
EXTT12=
PLAYORDER=
